<mxfile host="app.diagrams.net" agent="Mozilla/5.0 (Windows NT 10.0; Win64; x64; rv:136.0) Gecko/20100101 Firefox/136.0" version="26.1.1">
  <diagram name="Page-1" id="Ns-mYcuR6pwTRqaIpOI6">
    <mxGraphModel dx="2098" dy="1310" grid="1" gridSize="10" guides="1" tooltips="1" connect="1" arrows="1" fold="1" page="1" pageScale="1" pageWidth="850" pageHeight="1100" math="0" shadow="0">
      <root>
        <mxCell id="0" />
        <mxCell id="1" parent="0" />
        <mxCell id="OJ9i9CxA9cbUhxCRyyPE-1" value="OKTATÓ" style="shape=table;startSize=30;container=1;collapsible=1;childLayout=tableLayout;fixedRows=1;rowLines=0;fontStyle=1;align=center;resizeLast=1;html=1;fillColor=#f5f5f5;fontColor=#333333;strokeColor=#666666;" vertex="1" parent="1">
          <mxGeometry x="30" y="160" width="180" height="120" as="geometry" />
        </mxCell>
        <mxCell id="OJ9i9CxA9cbUhxCRyyPE-2" value="" style="shape=tableRow;horizontal=0;startSize=0;swimlaneHead=0;swimlaneBody=0;fillColor=none;collapsible=0;dropTarget=0;points=[[0,0.5],[1,0.5]];portConstraint=eastwest;top=0;left=0;right=0;bottom=1;" vertex="1" parent="OJ9i9CxA9cbUhxCRyyPE-1">
          <mxGeometry y="30" width="180" height="30" as="geometry" />
        </mxCell>
        <mxCell id="OJ9i9CxA9cbUhxCRyyPE-3" value="PK" style="shape=partialRectangle;connectable=0;fillColor=none;top=0;left=0;bottom=0;right=0;fontStyle=1;overflow=hidden;whiteSpace=wrap;html=1;" vertex="1" parent="OJ9i9CxA9cbUhxCRyyPE-2">
          <mxGeometry width="30" height="30" as="geometry">
            <mxRectangle width="30" height="30" as="alternateBounds" />
          </mxGeometry>
        </mxCell>
        <mxCell id="OJ9i9CxA9cbUhxCRyyPE-4" value="neptunkód C(20)" style="shape=partialRectangle;connectable=0;fillColor=none;top=0;left=0;bottom=0;right=0;align=left;spacingLeft=6;fontStyle=5;overflow=hidden;whiteSpace=wrap;html=1;" vertex="1" parent="OJ9i9CxA9cbUhxCRyyPE-2">
          <mxGeometry x="30" width="150" height="30" as="geometry">
            <mxRectangle width="150" height="30" as="alternateBounds" />
          </mxGeometry>
        </mxCell>
        <mxCell id="OJ9i9CxA9cbUhxCRyyPE-5" value="" style="shape=tableRow;horizontal=0;startSize=0;swimlaneHead=0;swimlaneBody=0;fillColor=none;collapsible=0;dropTarget=0;points=[[0,0.5],[1,0.5]];portConstraint=eastwest;top=0;left=0;right=0;bottom=0;" vertex="1" parent="OJ9i9CxA9cbUhxCRyyPE-1">
          <mxGeometry y="60" width="180" height="30" as="geometry" />
        </mxCell>
        <mxCell id="OJ9i9CxA9cbUhxCRyyPE-6" value="" style="shape=partialRectangle;connectable=0;fillColor=none;top=0;left=0;bottom=0;right=0;editable=1;overflow=hidden;whiteSpace=wrap;html=1;" vertex="1" parent="OJ9i9CxA9cbUhxCRyyPE-5">
          <mxGeometry width="30" height="30" as="geometry">
            <mxRectangle width="30" height="30" as="alternateBounds" />
          </mxGeometry>
        </mxCell>
        <mxCell id="OJ9i9CxA9cbUhxCRyyPE-7" value="név C(20)" style="shape=partialRectangle;connectable=0;fillColor=none;top=0;left=0;bottom=0;right=0;align=left;spacingLeft=6;overflow=hidden;whiteSpace=wrap;html=1;" vertex="1" parent="OJ9i9CxA9cbUhxCRyyPE-5">
          <mxGeometry x="30" width="150" height="30" as="geometry">
            <mxRectangle width="150" height="30" as="alternateBounds" />
          </mxGeometry>
        </mxCell>
        <mxCell id="OJ9i9CxA9cbUhxCRyyPE-8" value="" style="shape=tableRow;horizontal=0;startSize=0;swimlaneHead=0;swimlaneBody=0;fillColor=none;collapsible=0;dropTarget=0;points=[[0,0.5],[1,0.5]];portConstraint=eastwest;top=0;left=0;right=0;bottom=0;" vertex="1" parent="OJ9i9CxA9cbUhxCRyyPE-1">
          <mxGeometry y="90" width="180" height="30" as="geometry" />
        </mxCell>
        <mxCell id="OJ9i9CxA9cbUhxCRyyPE-9" value="" style="shape=partialRectangle;connectable=0;fillColor=none;top=0;left=0;bottom=0;right=0;editable=1;overflow=hidden;whiteSpace=wrap;html=1;" vertex="1" parent="OJ9i9CxA9cbUhxCRyyPE-8">
          <mxGeometry width="30" height="30" as="geometry">
            <mxRectangle width="30" height="30" as="alternateBounds" />
          </mxGeometry>
        </mxCell>
        <mxCell id="OJ9i9CxA9cbUhxCRyyPE-10" value="tanszék C(20)" style="shape=partialRectangle;connectable=0;fillColor=none;top=0;left=0;bottom=0;right=0;align=left;spacingLeft=6;overflow=hidden;whiteSpace=wrap;html=1;" vertex="1" parent="OJ9i9CxA9cbUhxCRyyPE-8">
          <mxGeometry x="30" width="150" height="30" as="geometry">
            <mxRectangle width="150" height="30" as="alternateBounds" />
          </mxGeometry>
        </mxCell>
        <mxCell id="OJ9i9CxA9cbUhxCRyyPE-14" value="TÁRGY" style="shape=table;startSize=30;container=1;collapsible=1;childLayout=tableLayout;fixedRows=1;rowLines=0;fontStyle=1;align=center;resizeLast=1;html=1;fillColor=#f5f5f5;fontColor=#333333;strokeColor=#666666;" vertex="1" parent="1">
          <mxGeometry x="260" y="160" width="180" height="150" as="geometry" />
        </mxCell>
        <mxCell id="OJ9i9CxA9cbUhxCRyyPE-15" value="" style="shape=tableRow;horizontal=0;startSize=0;swimlaneHead=0;swimlaneBody=0;fillColor=none;collapsible=0;dropTarget=0;points=[[0,0.5],[1,0.5]];portConstraint=eastwest;top=0;left=0;right=0;bottom=1;" vertex="1" parent="OJ9i9CxA9cbUhxCRyyPE-14">
          <mxGeometry y="30" width="180" height="30" as="geometry" />
        </mxCell>
        <mxCell id="OJ9i9CxA9cbUhxCRyyPE-16" value="PK" style="shape=partialRectangle;connectable=0;fillColor=none;top=0;left=0;bottom=0;right=0;fontStyle=1;overflow=hidden;whiteSpace=wrap;html=1;" vertex="1" parent="OJ9i9CxA9cbUhxCRyyPE-15">
          <mxGeometry width="30" height="30" as="geometry">
            <mxRectangle width="30" height="30" as="alternateBounds" />
          </mxGeometry>
        </mxCell>
        <mxCell id="OJ9i9CxA9cbUhxCRyyPE-17" value="kód C(20)" style="shape=partialRectangle;connectable=0;fillColor=none;top=0;left=0;bottom=0;right=0;align=left;spacingLeft=6;fontStyle=5;overflow=hidden;whiteSpace=wrap;html=1;" vertex="1" parent="OJ9i9CxA9cbUhxCRyyPE-15">
          <mxGeometry x="30" width="150" height="30" as="geometry">
            <mxRectangle width="150" height="30" as="alternateBounds" />
          </mxGeometry>
        </mxCell>
        <mxCell id="OJ9i9CxA9cbUhxCRyyPE-18" value="" style="shape=tableRow;horizontal=0;startSize=0;swimlaneHead=0;swimlaneBody=0;fillColor=none;collapsible=0;dropTarget=0;points=[[0,0.5],[1,0.5]];portConstraint=eastwest;top=0;left=0;right=0;bottom=0;" vertex="1" parent="OJ9i9CxA9cbUhxCRyyPE-14">
          <mxGeometry y="60" width="180" height="30" as="geometry" />
        </mxCell>
        <mxCell id="OJ9i9CxA9cbUhxCRyyPE-19" value="" style="shape=partialRectangle;connectable=0;fillColor=none;top=0;left=0;bottom=0;right=0;editable=1;overflow=hidden;whiteSpace=wrap;html=1;" vertex="1" parent="OJ9i9CxA9cbUhxCRyyPE-18">
          <mxGeometry width="30" height="30" as="geometry">
            <mxRectangle width="30" height="30" as="alternateBounds" />
          </mxGeometry>
        </mxCell>
        <mxCell id="OJ9i9CxA9cbUhxCRyyPE-20" value="megnevezés C(20)" style="shape=partialRectangle;connectable=0;fillColor=none;top=0;left=0;bottom=0;right=0;align=left;spacingLeft=6;overflow=hidden;whiteSpace=wrap;html=1;" vertex="1" parent="OJ9i9CxA9cbUhxCRyyPE-18">
          <mxGeometry x="30" width="150" height="30" as="geometry">
            <mxRectangle width="150" height="30" as="alternateBounds" />
          </mxGeometry>
        </mxCell>
        <mxCell id="OJ9i9CxA9cbUhxCRyyPE-21" value="" style="shape=tableRow;horizontal=0;startSize=0;swimlaneHead=0;swimlaneBody=0;fillColor=none;collapsible=0;dropTarget=0;points=[[0,0.5],[1,0.5]];portConstraint=eastwest;top=0;left=0;right=0;bottom=0;" vertex="1" parent="OJ9i9CxA9cbUhxCRyyPE-14">
          <mxGeometry y="90" width="180" height="30" as="geometry" />
        </mxCell>
        <mxCell id="OJ9i9CxA9cbUhxCRyyPE-22" value="" style="shape=partialRectangle;connectable=0;fillColor=none;top=0;left=0;bottom=0;right=0;editable=1;overflow=hidden;whiteSpace=wrap;html=1;" vertex="1" parent="OJ9i9CxA9cbUhxCRyyPE-21">
          <mxGeometry width="30" height="30" as="geometry">
            <mxRectangle width="30" height="30" as="alternateBounds" />
          </mxGeometry>
        </mxCell>
        <mxCell id="OJ9i9CxA9cbUhxCRyyPE-23" value="kredit N(10)" style="shape=partialRectangle;connectable=0;fillColor=none;top=0;left=0;bottom=0;right=0;align=left;spacingLeft=6;overflow=hidden;whiteSpace=wrap;html=1;" vertex="1" parent="OJ9i9CxA9cbUhxCRyyPE-21">
          <mxGeometry x="30" width="150" height="30" as="geometry">
            <mxRectangle width="150" height="30" as="alternateBounds" />
          </mxGeometry>
        </mxCell>
        <mxCell id="OJ9i9CxA9cbUhxCRyyPE-24" value="" style="shape=tableRow;horizontal=0;startSize=0;swimlaneHead=0;swimlaneBody=0;fillColor=none;collapsible=0;dropTarget=0;points=[[0,0.5],[1,0.5]];portConstraint=eastwest;top=0;left=0;right=0;bottom=0;" vertex="1" parent="OJ9i9CxA9cbUhxCRyyPE-14">
          <mxGeometry y="120" width="180" height="30" as="geometry" />
        </mxCell>
        <mxCell id="OJ9i9CxA9cbUhxCRyyPE-25" value="FK" style="shape=partialRectangle;connectable=0;fillColor=none;top=1;left=0;bottom=0;right=0;editable=1;overflow=hidden;whiteSpace=wrap;html=1;" vertex="1" parent="OJ9i9CxA9cbUhxCRyyPE-24">
          <mxGeometry width="30" height="30" as="geometry">
            <mxRectangle width="30" height="30" as="alternateBounds" />
          </mxGeometry>
        </mxCell>
        <mxCell id="OJ9i9CxA9cbUhxCRyyPE-26" value="&lt;div&gt;oktató C(20)&lt;/div&gt;" style="shape=partialRectangle;connectable=0;fillColor=none;top=1;left=0;bottom=0;right=0;align=left;spacingLeft=6;overflow=hidden;whiteSpace=wrap;html=1;" vertex="1" parent="OJ9i9CxA9cbUhxCRyyPE-24">
          <mxGeometry x="30" width="150" height="30" as="geometry">
            <mxRectangle width="150" height="30" as="alternateBounds" />
          </mxGeometry>
        </mxCell>
        <mxCell id="OJ9i9CxA9cbUhxCRyyPE-102" value="HALLGAT" style="shape=table;startSize=30;container=1;collapsible=1;childLayout=tableLayout;fixedRows=1;rowLines=0;fontStyle=1;align=center;resizeLast=1;html=1;whiteSpace=wrap;fillColor=#f5f5f5;fontColor=#333333;strokeColor=#666666;" vertex="1" parent="1">
          <mxGeometry x="510" y="160" width="180" height="150" as="geometry" />
        </mxCell>
        <mxCell id="OJ9i9CxA9cbUhxCRyyPE-103" value="" style="shape=tableRow;horizontal=0;startSize=0;swimlaneHead=0;swimlaneBody=0;fillColor=none;collapsible=0;dropTarget=0;points=[[0,0.5],[1,0.5]];portConstraint=eastwest;top=0;left=0;right=0;bottom=0;html=1;" vertex="1" parent="OJ9i9CxA9cbUhxCRyyPE-102">
          <mxGeometry y="30" width="180" height="30" as="geometry" />
        </mxCell>
        <mxCell id="OJ9i9CxA9cbUhxCRyyPE-104" value="FK" style="shape=partialRectangle;connectable=0;fillColor=none;top=0;left=0;bottom=0;right=0;fontStyle=1;overflow=hidden;html=1;whiteSpace=wrap;" vertex="1" parent="OJ9i9CxA9cbUhxCRyyPE-103">
          <mxGeometry width="60" height="30" as="geometry">
            <mxRectangle width="60" height="30" as="alternateBounds" />
          </mxGeometry>
        </mxCell>
        <mxCell id="OJ9i9CxA9cbUhxCRyyPE-105" value="h neptunkód C(20)" style="shape=partialRectangle;connectable=0;fillColor=none;top=0;left=0;bottom=0;right=0;align=left;spacingLeft=6;fontStyle=5;overflow=hidden;html=1;whiteSpace=wrap;" vertex="1" parent="OJ9i9CxA9cbUhxCRyyPE-103">
          <mxGeometry x="60" width="120" height="30" as="geometry">
            <mxRectangle width="120" height="30" as="alternateBounds" />
          </mxGeometry>
        </mxCell>
        <mxCell id="OJ9i9CxA9cbUhxCRyyPE-106" value="" style="shape=tableRow;horizontal=0;startSize=0;swimlaneHead=0;swimlaneBody=0;fillColor=none;collapsible=0;dropTarget=0;points=[[0,0.5],[1,0.5]];portConstraint=eastwest;top=0;left=0;right=0;bottom=1;html=1;" vertex="1" parent="OJ9i9CxA9cbUhxCRyyPE-102">
          <mxGeometry y="60" width="180" height="30" as="geometry" />
        </mxCell>
        <mxCell id="OJ9i9CxA9cbUhxCRyyPE-107" value="FK" style="shape=partialRectangle;connectable=0;fillColor=none;top=0;left=0;bottom=0;right=0;fontStyle=1;overflow=hidden;html=1;whiteSpace=wrap;" vertex="1" parent="OJ9i9CxA9cbUhxCRyyPE-106">
          <mxGeometry width="60" height="30" as="geometry">
            <mxRectangle width="60" height="30" as="alternateBounds" />
          </mxGeometry>
        </mxCell>
        <mxCell id="OJ9i9CxA9cbUhxCRyyPE-108" value="T kód C(20)" style="shape=partialRectangle;connectable=0;fillColor=none;top=0;left=0;bottom=0;right=0;align=left;spacingLeft=6;fontStyle=5;overflow=hidden;html=1;whiteSpace=wrap;" vertex="1" parent="OJ9i9CxA9cbUhxCRyyPE-106">
          <mxGeometry x="60" width="120" height="30" as="geometry">
            <mxRectangle width="120" height="30" as="alternateBounds" />
          </mxGeometry>
        </mxCell>
        <mxCell id="OJ9i9CxA9cbUhxCRyyPE-109" value="" style="shape=tableRow;horizontal=0;startSize=0;swimlaneHead=0;swimlaneBody=0;fillColor=none;collapsible=0;dropTarget=0;points=[[0,0.5],[1,0.5]];portConstraint=eastwest;top=0;left=0;right=0;bottom=0;html=1;" vertex="1" parent="OJ9i9CxA9cbUhxCRyyPE-102">
          <mxGeometry y="90" width="180" height="30" as="geometry" />
        </mxCell>
        <mxCell id="OJ9i9CxA9cbUhxCRyyPE-110" value="" style="shape=partialRectangle;connectable=0;fillColor=none;top=0;left=0;bottom=0;right=0;editable=1;overflow=hidden;html=1;whiteSpace=wrap;" vertex="1" parent="OJ9i9CxA9cbUhxCRyyPE-109">
          <mxGeometry width="60" height="30" as="geometry">
            <mxRectangle width="60" height="30" as="alternateBounds" />
          </mxGeometry>
        </mxCell>
        <mxCell id="OJ9i9CxA9cbUhxCRyyPE-111" value="félév C(20)" style="shape=partialRectangle;connectable=0;fillColor=none;top=0;left=0;bottom=0;right=0;align=left;spacingLeft=6;overflow=hidden;html=1;whiteSpace=wrap;" vertex="1" parent="OJ9i9CxA9cbUhxCRyyPE-109">
          <mxGeometry x="60" width="120" height="30" as="geometry">
            <mxRectangle width="120" height="30" as="alternateBounds" />
          </mxGeometry>
        </mxCell>
        <mxCell id="OJ9i9CxA9cbUhxCRyyPE-112" value="" style="shape=tableRow;horizontal=0;startSize=0;swimlaneHead=0;swimlaneBody=0;fillColor=none;collapsible=0;dropTarget=0;points=[[0,0.5],[1,0.5]];portConstraint=eastwest;top=0;left=0;right=0;bottom=0;html=1;" vertex="1" parent="OJ9i9CxA9cbUhxCRyyPE-102">
          <mxGeometry y="120" width="180" height="30" as="geometry" />
        </mxCell>
        <mxCell id="OJ9i9CxA9cbUhxCRyyPE-113" value="" style="shape=partialRectangle;connectable=0;fillColor=none;top=0;left=0;bottom=0;right=0;editable=1;overflow=hidden;html=1;whiteSpace=wrap;" vertex="1" parent="OJ9i9CxA9cbUhxCRyyPE-112">
          <mxGeometry width="60" height="30" as="geometry">
            <mxRectangle width="60" height="30" as="alternateBounds" />
          </mxGeometry>
        </mxCell>
        <mxCell id="OJ9i9CxA9cbUhxCRyyPE-114" value="vizsgajegy N(4)" style="shape=partialRectangle;connectable=0;fillColor=none;top=0;left=0;bottom=0;right=0;align=left;spacingLeft=6;overflow=hidden;html=1;whiteSpace=wrap;" vertex="1" parent="OJ9i9CxA9cbUhxCRyyPE-112">
          <mxGeometry x="60" width="120" height="30" as="geometry">
            <mxRectangle width="120" height="30" as="alternateBounds" />
          </mxGeometry>
        </mxCell>
        <mxCell id="OJ9i9CxA9cbUhxCRyyPE-115" value="HALLGATÓ" style="shape=table;startSize=30;container=1;collapsible=1;childLayout=tableLayout;fixedRows=1;rowLines=0;fontStyle=1;align=center;resizeLast=1;html=1;fillColor=#f5f5f5;fontColor=#333333;strokeColor=#666666;" vertex="1" parent="1">
          <mxGeometry x="750" y="160" width="180" height="270" as="geometry" />
        </mxCell>
        <mxCell id="OJ9i9CxA9cbUhxCRyyPE-116" value="" style="shape=tableRow;horizontal=0;startSize=0;swimlaneHead=0;swimlaneBody=0;fillColor=none;collapsible=0;dropTarget=0;points=[[0,0.5],[1,0.5]];portConstraint=eastwest;top=0;left=0;right=0;bottom=1;" vertex="1" parent="OJ9i9CxA9cbUhxCRyyPE-115">
          <mxGeometry y="30" width="180" height="30" as="geometry" />
        </mxCell>
        <mxCell id="OJ9i9CxA9cbUhxCRyyPE-117" value="PK" style="shape=partialRectangle;connectable=0;fillColor=none;top=0;left=0;bottom=0;right=0;fontStyle=1;overflow=hidden;whiteSpace=wrap;html=1;" vertex="1" parent="OJ9i9CxA9cbUhxCRyyPE-116">
          <mxGeometry width="30" height="30" as="geometry">
            <mxRectangle width="30" height="30" as="alternateBounds" />
          </mxGeometry>
        </mxCell>
        <mxCell id="OJ9i9CxA9cbUhxCRyyPE-118" value="neptunkód C(10)" style="shape=partialRectangle;connectable=0;fillColor=none;top=0;left=0;bottom=0;right=0;align=left;spacingLeft=6;fontStyle=5;overflow=hidden;whiteSpace=wrap;html=1;" vertex="1" parent="OJ9i9CxA9cbUhxCRyyPE-116">
          <mxGeometry x="30" width="150" height="30" as="geometry">
            <mxRectangle width="150" height="30" as="alternateBounds" />
          </mxGeometry>
        </mxCell>
        <mxCell id="OJ9i9CxA9cbUhxCRyyPE-119" value="" style="shape=tableRow;horizontal=0;startSize=0;swimlaneHead=0;swimlaneBody=0;fillColor=none;collapsible=0;dropTarget=0;points=[[0,0.5],[1,0.5]];portConstraint=eastwest;top=0;left=0;right=0;bottom=0;" vertex="1" parent="OJ9i9CxA9cbUhxCRyyPE-115">
          <mxGeometry y="60" width="180" height="30" as="geometry" />
        </mxCell>
        <mxCell id="OJ9i9CxA9cbUhxCRyyPE-120" value="" style="shape=partialRectangle;connectable=0;fillColor=none;top=0;left=0;bottom=0;right=0;editable=1;overflow=hidden;whiteSpace=wrap;html=1;" vertex="1" parent="OJ9i9CxA9cbUhxCRyyPE-119">
          <mxGeometry width="30" height="30" as="geometry">
            <mxRectangle width="30" height="30" as="alternateBounds" />
          </mxGeometry>
        </mxCell>
        <mxCell id="OJ9i9CxA9cbUhxCRyyPE-121" value="&lt;div&gt;név C(20)&lt;/div&gt;" style="shape=partialRectangle;connectable=0;fillColor=none;top=0;left=0;bottom=0;right=0;align=left;spacingLeft=6;overflow=hidden;whiteSpace=wrap;html=1;" vertex="1" parent="OJ9i9CxA9cbUhxCRyyPE-119">
          <mxGeometry x="30" width="150" height="30" as="geometry">
            <mxRectangle width="150" height="30" as="alternateBounds" />
          </mxGeometry>
        </mxCell>
        <mxCell id="OJ9i9CxA9cbUhxCRyyPE-122" value="" style="shape=tableRow;horizontal=0;startSize=0;swimlaneHead=0;swimlaneBody=0;fillColor=none;collapsible=0;dropTarget=0;points=[[0,0.5],[1,0.5]];portConstraint=eastwest;top=0;left=0;right=0;bottom=0;" vertex="1" parent="OJ9i9CxA9cbUhxCRyyPE-115">
          <mxGeometry y="90" width="180" height="30" as="geometry" />
        </mxCell>
        <mxCell id="OJ9i9CxA9cbUhxCRyyPE-123" value="" style="shape=partialRectangle;connectable=0;fillColor=none;top=0;left=0;bottom=0;right=0;editable=1;overflow=hidden;whiteSpace=wrap;html=1;" vertex="1" parent="OJ9i9CxA9cbUhxCRyyPE-122">
          <mxGeometry width="30" height="30" as="geometry">
            <mxRectangle width="30" height="30" as="alternateBounds" />
          </mxGeometry>
        </mxCell>
        <mxCell id="OJ9i9CxA9cbUhxCRyyPE-124" value="szül.dátum C(10)" style="shape=partialRectangle;connectable=0;fillColor=none;top=0;left=0;bottom=0;right=0;align=left;spacingLeft=6;overflow=hidden;whiteSpace=wrap;html=1;" vertex="1" parent="OJ9i9CxA9cbUhxCRyyPE-122">
          <mxGeometry x="30" width="150" height="30" as="geometry">
            <mxRectangle width="150" height="30" as="alternateBounds" />
          </mxGeometry>
        </mxCell>
        <mxCell id="OJ9i9CxA9cbUhxCRyyPE-129" value="" style="shape=tableRow;horizontal=0;startSize=0;swimlaneHead=0;swimlaneBody=0;fillColor=none;collapsible=0;dropTarget=0;points=[[0,0.5],[1,0.5]];portConstraint=eastwest;top=0;left=0;right=0;bottom=0;" vertex="1" parent="OJ9i9CxA9cbUhxCRyyPE-115">
          <mxGeometry y="120" width="180" height="30" as="geometry" />
        </mxCell>
        <mxCell id="OJ9i9CxA9cbUhxCRyyPE-130" value="" style="shape=partialRectangle;connectable=0;fillColor=none;top=0;left=0;bottom=0;right=0;editable=1;overflow=hidden;" vertex="1" parent="OJ9i9CxA9cbUhxCRyyPE-129">
          <mxGeometry width="30" height="30" as="geometry">
            <mxRectangle width="30" height="30" as="alternateBounds" />
          </mxGeometry>
        </mxCell>
        <mxCell id="OJ9i9CxA9cbUhxCRyyPE-131" value="irsz N(10)" style="shape=partialRectangle;connectable=0;fillColor=none;top=0;left=0;bottom=0;right=0;align=left;spacingLeft=6;overflow=hidden;" vertex="1" parent="OJ9i9CxA9cbUhxCRyyPE-129">
          <mxGeometry x="30" width="150" height="30" as="geometry">
            <mxRectangle width="150" height="30" as="alternateBounds" />
          </mxGeometry>
        </mxCell>
        <mxCell id="OJ9i9CxA9cbUhxCRyyPE-125" value="" style="shape=tableRow;horizontal=0;startSize=0;swimlaneHead=0;swimlaneBody=0;fillColor=none;collapsible=0;dropTarget=0;points=[[0,0.5],[1,0.5]];portConstraint=eastwest;top=0;left=0;right=0;bottom=0;" vertex="1" parent="OJ9i9CxA9cbUhxCRyyPE-115">
          <mxGeometry y="150" width="180" height="30" as="geometry" />
        </mxCell>
        <mxCell id="OJ9i9CxA9cbUhxCRyyPE-126" value="" style="shape=partialRectangle;connectable=0;fillColor=none;top=0;left=0;bottom=0;right=0;editable=1;overflow=hidden;whiteSpace=wrap;html=1;" vertex="1" parent="OJ9i9CxA9cbUhxCRyyPE-125">
          <mxGeometry width="30" height="30" as="geometry">
            <mxRectangle width="30" height="30" as="alternateBounds" />
          </mxGeometry>
        </mxCell>
        <mxCell id="OJ9i9CxA9cbUhxCRyyPE-127" value="tankör C(20)" style="shape=partialRectangle;connectable=0;fillColor=none;top=0;left=0;bottom=0;right=0;align=left;spacingLeft=6;overflow=hidden;whiteSpace=wrap;html=1;" vertex="1" parent="OJ9i9CxA9cbUhxCRyyPE-125">
          <mxGeometry x="30" width="150" height="30" as="geometry">
            <mxRectangle width="150" height="30" as="alternateBounds" />
          </mxGeometry>
        </mxCell>
        <mxCell id="OJ9i9CxA9cbUhxCRyyPE-132" value="" style="shape=tableRow;horizontal=0;startSize=0;swimlaneHead=0;swimlaneBody=0;fillColor=none;collapsible=0;dropTarget=0;points=[[0,0.5],[1,0.5]];portConstraint=eastwest;top=0;left=0;right=0;bottom=0;" vertex="1" parent="OJ9i9CxA9cbUhxCRyyPE-115">
          <mxGeometry y="180" width="180" height="30" as="geometry" />
        </mxCell>
        <mxCell id="OJ9i9CxA9cbUhxCRyyPE-133" value="" style="shape=partialRectangle;connectable=0;fillColor=none;top=0;left=0;bottom=0;right=0;editable=1;overflow=hidden;" vertex="1" parent="OJ9i9CxA9cbUhxCRyyPE-132">
          <mxGeometry width="30" height="30" as="geometry">
            <mxRectangle width="30" height="30" as="alternateBounds" />
          </mxGeometry>
        </mxCell>
        <mxCell id="OJ9i9CxA9cbUhxCRyyPE-134" value="város C(20)" style="shape=partialRectangle;connectable=0;fillColor=none;top=0;left=0;bottom=0;right=0;align=left;spacingLeft=6;overflow=hidden;" vertex="1" parent="OJ9i9CxA9cbUhxCRyyPE-132">
          <mxGeometry x="30" width="150" height="30" as="geometry">
            <mxRectangle width="150" height="30" as="alternateBounds" />
          </mxGeometry>
        </mxCell>
        <mxCell id="OJ9i9CxA9cbUhxCRyyPE-136" value="" style="shape=tableRow;horizontal=0;startSize=0;swimlaneHead=0;swimlaneBody=0;fillColor=none;collapsible=0;dropTarget=0;points=[[0,0.5],[1,0.5]];portConstraint=eastwest;top=0;left=0;right=0;bottom=0;" vertex="1" parent="OJ9i9CxA9cbUhxCRyyPE-115">
          <mxGeometry y="210" width="180" height="30" as="geometry" />
        </mxCell>
        <mxCell id="OJ9i9CxA9cbUhxCRyyPE-137" value="" style="shape=partialRectangle;connectable=0;fillColor=none;top=0;left=0;bottom=0;right=0;editable=1;overflow=hidden;" vertex="1" parent="OJ9i9CxA9cbUhxCRyyPE-136">
          <mxGeometry width="30" height="30" as="geometry">
            <mxRectangle width="30" height="30" as="alternateBounds" />
          </mxGeometry>
        </mxCell>
        <mxCell id="OJ9i9CxA9cbUhxCRyyPE-138" value="utca C(20)" style="shape=partialRectangle;connectable=0;fillColor=none;top=0;left=0;bottom=0;right=0;align=left;spacingLeft=6;overflow=hidden;" vertex="1" parent="OJ9i9CxA9cbUhxCRyyPE-136">
          <mxGeometry x="30" width="150" height="30" as="geometry">
            <mxRectangle width="150" height="30" as="alternateBounds" />
          </mxGeometry>
        </mxCell>
        <mxCell id="OJ9i9CxA9cbUhxCRyyPE-140" value="" style="shape=tableRow;horizontal=0;startSize=0;swimlaneHead=0;swimlaneBody=0;fillColor=none;collapsible=0;dropTarget=0;points=[[0,0.5],[1,0.5]];portConstraint=eastwest;top=0;left=0;right=0;bottom=0;" vertex="1" parent="OJ9i9CxA9cbUhxCRyyPE-115">
          <mxGeometry y="240" width="180" height="30" as="geometry" />
        </mxCell>
        <mxCell id="OJ9i9CxA9cbUhxCRyyPE-141" value="" style="shape=partialRectangle;connectable=0;fillColor=none;top=0;left=0;bottom=0;right=0;editable=1;overflow=hidden;" vertex="1" parent="OJ9i9CxA9cbUhxCRyyPE-140">
          <mxGeometry width="30" height="30" as="geometry">
            <mxRectangle width="30" height="30" as="alternateBounds" />
          </mxGeometry>
        </mxCell>
        <mxCell id="OJ9i9CxA9cbUhxCRyyPE-142" value="házszám C(10)" style="shape=partialRectangle;connectable=0;fillColor=none;top=0;left=0;bottom=0;right=0;align=left;spacingLeft=6;overflow=hidden;" vertex="1" parent="OJ9i9CxA9cbUhxCRyyPE-140">
          <mxGeometry x="30" width="150" height="30" as="geometry">
            <mxRectangle width="150" height="30" as="alternateBounds" />
          </mxGeometry>
        </mxCell>
        <mxCell id="OJ9i9CxA9cbUhxCRyyPE-143" style="edgeStyle=orthogonalEdgeStyle;rounded=0;orthogonalLoop=1;jettySize=auto;html=1;exitX=0;exitY=0.5;exitDx=0;exitDy=0;entryX=1;entryY=0.5;entryDx=0;entryDy=0;" edge="1" parent="1" source="OJ9i9CxA9cbUhxCRyyPE-24" target="OJ9i9CxA9cbUhxCRyyPE-2">
          <mxGeometry relative="1" as="geometry" />
        </mxCell>
        <mxCell id="OJ9i9CxA9cbUhxCRyyPE-144" style="edgeStyle=orthogonalEdgeStyle;rounded=0;orthogonalLoop=1;jettySize=auto;html=1;exitX=0;exitY=0.5;exitDx=0;exitDy=0;entryX=1;entryY=0.5;entryDx=0;entryDy=0;" edge="1" parent="1" source="OJ9i9CxA9cbUhxCRyyPE-106" target="OJ9i9CxA9cbUhxCRyyPE-15">
          <mxGeometry relative="1" as="geometry" />
        </mxCell>
        <mxCell id="OJ9i9CxA9cbUhxCRyyPE-145" style="edgeStyle=orthogonalEdgeStyle;rounded=0;orthogonalLoop=1;jettySize=auto;html=1;exitX=1;exitY=0.5;exitDx=0;exitDy=0;" edge="1" parent="1" source="OJ9i9CxA9cbUhxCRyyPE-103" target="OJ9i9CxA9cbUhxCRyyPE-116">
          <mxGeometry relative="1" as="geometry" />
        </mxCell>
        <mxCell id="OJ9i9CxA9cbUhxCRyyPE-324" value="Hallgató" style="rounded=0;whiteSpace=wrap;html=1;" vertex="1" parent="1">
          <mxGeometry x="1395" y="900" width="120" height="60" as="geometry" />
        </mxCell>
        <mxCell id="OJ9i9CxA9cbUhxCRyyPE-325" value="Tárgy" style="rounded=0;whiteSpace=wrap;html=1;" vertex="1" parent="1">
          <mxGeometry x="460" y="900" width="120" height="60" as="geometry" />
        </mxCell>
        <mxCell id="OJ9i9CxA9cbUhxCRyyPE-326" value="Oktató" style="rounded=0;whiteSpace=wrap;html=1;" vertex="1" parent="1">
          <mxGeometry x="110" y="900" width="120" height="60" as="geometry" />
        </mxCell>
        <mxCell id="OJ9i9CxA9cbUhxCRyyPE-328" value="&lt;b&gt;&lt;u&gt;Neptunkód&lt;/u&gt;&lt;/b&gt;" style="ellipse;whiteSpace=wrap;html=1;" vertex="1" parent="1">
          <mxGeometry x="30" y="1000" width="90" height="40" as="geometry" />
        </mxCell>
        <mxCell id="OJ9i9CxA9cbUhxCRyyPE-329" value="Név" style="ellipse;whiteSpace=wrap;html=1;" vertex="1" parent="1">
          <mxGeometry x="125" y="1000" width="90" height="40" as="geometry" />
        </mxCell>
        <mxCell id="OJ9i9CxA9cbUhxCRyyPE-330" value="Tanszék" style="ellipse;whiteSpace=wrap;html=1;" vertex="1" parent="1">
          <mxGeometry x="220" y="1000" width="90" height="40" as="geometry" />
        </mxCell>
        <mxCell id="OJ9i9CxA9cbUhxCRyyPE-331" value="&lt;b&gt;&lt;u&gt;kód PK&lt;/u&gt;&lt;/b&gt;" style="ellipse;whiteSpace=wrap;html=1;" vertex="1" parent="1">
          <mxGeometry x="323.5" y="1000" width="90" height="40" as="geometry" />
        </mxCell>
        <mxCell id="OJ9i9CxA9cbUhxCRyyPE-332" value="Megnevezés" style="ellipse;whiteSpace=wrap;html=1;" vertex="1" parent="1">
          <mxGeometry x="425" y="1000" width="90" height="40" as="geometry" />
        </mxCell>
        <mxCell id="OJ9i9CxA9cbUhxCRyyPE-333" value="Kredit" style="ellipse;whiteSpace=wrap;html=1;" vertex="1" parent="1">
          <mxGeometry x="520" y="1000" width="90" height="40" as="geometry" />
        </mxCell>
        <mxCell id="OJ9i9CxA9cbUhxCRyyPE-334" value="Oktató FK" style="ellipse;whiteSpace=wrap;html=1;" vertex="1" parent="1">
          <mxGeometry x="620" y="1000" width="90" height="40" as="geometry" />
        </mxCell>
        <mxCell id="OJ9i9CxA9cbUhxCRyyPE-335" value="h neptunkód FK" style="ellipse;whiteSpace=wrap;html=1;" vertex="1" parent="1">
          <mxGeometry x="750" y="1000" width="90" height="40" as="geometry" />
        </mxCell>
        <mxCell id="OJ9i9CxA9cbUhxCRyyPE-336" value="T kód FK" style="ellipse;whiteSpace=wrap;html=1;" vertex="1" parent="1">
          <mxGeometry x="865" y="1000" width="90" height="40" as="geometry" />
        </mxCell>
        <mxCell id="OJ9i9CxA9cbUhxCRyyPE-337" value="Félév" style="ellipse;whiteSpace=wrap;html=1;" vertex="1" parent="1">
          <mxGeometry x="963" y="1000" width="90" height="40" as="geometry" />
        </mxCell>
        <mxCell id="OJ9i9CxA9cbUhxCRyyPE-338" value="" style="endArrow=none;html=1;rounded=0;entryX=0.5;entryY=1;entryDx=0;entryDy=0;exitX=0.5;exitY=0;exitDx=0;exitDy=0;" edge="1" parent="1" source="OJ9i9CxA9cbUhxCRyyPE-330" target="OJ9i9CxA9cbUhxCRyyPE-326">
          <mxGeometry width="50" height="50" relative="1" as="geometry">
            <mxPoint x="370" y="1070" as="sourcePoint" />
            <mxPoint x="420" y="1020" as="targetPoint" />
          </mxGeometry>
        </mxCell>
        <mxCell id="OJ9i9CxA9cbUhxCRyyPE-339" value="" style="endArrow=none;html=1;rounded=0;entryX=0.5;entryY=1;entryDx=0;entryDy=0;exitX=0.5;exitY=0;exitDx=0;exitDy=0;" edge="1" parent="1" source="OJ9i9CxA9cbUhxCRyyPE-329" target="OJ9i9CxA9cbUhxCRyyPE-326">
          <mxGeometry width="50" height="50" relative="1" as="geometry">
            <mxPoint x="370" y="1070" as="sourcePoint" />
            <mxPoint x="420" y="1020" as="targetPoint" />
          </mxGeometry>
        </mxCell>
        <mxCell id="OJ9i9CxA9cbUhxCRyyPE-340" value="" style="endArrow=none;html=1;rounded=0;entryX=0.5;entryY=1;entryDx=0;entryDy=0;exitX=0.5;exitY=0;exitDx=0;exitDy=0;" edge="1" parent="1" source="OJ9i9CxA9cbUhxCRyyPE-328" target="OJ9i9CxA9cbUhxCRyyPE-326">
          <mxGeometry width="50" height="50" relative="1" as="geometry">
            <mxPoint x="370" y="1070" as="sourcePoint" />
            <mxPoint x="420" y="1020" as="targetPoint" />
          </mxGeometry>
        </mxCell>
        <mxCell id="OJ9i9CxA9cbUhxCRyyPE-341" value="" style="endArrow=none;html=1;rounded=0;entryX=0.5;entryY=1;entryDx=0;entryDy=0;exitX=0.5;exitY=0;exitDx=0;exitDy=0;" edge="1" parent="1" source="OJ9i9CxA9cbUhxCRyyPE-331" target="OJ9i9CxA9cbUhxCRyyPE-325">
          <mxGeometry width="50" height="50" relative="1" as="geometry">
            <mxPoint x="370" y="1070" as="sourcePoint" />
            <mxPoint x="420" y="1020" as="targetPoint" />
          </mxGeometry>
        </mxCell>
        <mxCell id="OJ9i9CxA9cbUhxCRyyPE-342" value="" style="endArrow=none;html=1;rounded=0;entryX=0.5;entryY=1;entryDx=0;entryDy=0;exitX=0.5;exitY=0;exitDx=0;exitDy=0;" edge="1" parent="1" source="OJ9i9CxA9cbUhxCRyyPE-332" target="OJ9i9CxA9cbUhxCRyyPE-325">
          <mxGeometry width="50" height="50" relative="1" as="geometry">
            <mxPoint x="370" y="1070" as="sourcePoint" />
            <mxPoint x="420" y="1020" as="targetPoint" />
          </mxGeometry>
        </mxCell>
        <mxCell id="OJ9i9CxA9cbUhxCRyyPE-343" value="" style="endArrow=none;html=1;rounded=0;entryX=0.5;entryY=1;entryDx=0;entryDy=0;exitX=0.5;exitY=0;exitDx=0;exitDy=0;" edge="1" parent="1" source="OJ9i9CxA9cbUhxCRyyPE-333" target="OJ9i9CxA9cbUhxCRyyPE-325">
          <mxGeometry width="50" height="50" relative="1" as="geometry">
            <mxPoint x="370" y="1070" as="sourcePoint" />
            <mxPoint x="420" y="1020" as="targetPoint" />
          </mxGeometry>
        </mxCell>
        <mxCell id="OJ9i9CxA9cbUhxCRyyPE-344" value="" style="endArrow=none;html=1;rounded=0;entryX=0.5;entryY=1;entryDx=0;entryDy=0;exitX=0.5;exitY=0;exitDx=0;exitDy=0;" edge="1" parent="1" source="OJ9i9CxA9cbUhxCRyyPE-334" target="OJ9i9CxA9cbUhxCRyyPE-325">
          <mxGeometry width="50" height="50" relative="1" as="geometry">
            <mxPoint x="370" y="1070" as="sourcePoint" />
            <mxPoint x="420" y="1020" as="targetPoint" />
          </mxGeometry>
        </mxCell>
        <mxCell id="OJ9i9CxA9cbUhxCRyyPE-345" value="Vizsgajegy" style="ellipse;whiteSpace=wrap;html=1;" vertex="1" parent="1">
          <mxGeometry x="1063.5" y="1000" width="90" height="40" as="geometry" />
        </mxCell>
        <mxCell id="OJ9i9CxA9cbUhxCRyyPE-346" value="" style="endArrow=none;html=1;rounded=0;entryX=0.5;entryY=1;entryDx=0;entryDy=0;exitX=0.5;exitY=0;exitDx=0;exitDy=0;" edge="1" parent="1" source="OJ9i9CxA9cbUhxCRyyPE-335">
          <mxGeometry width="50" height="50" relative="1" as="geometry">
            <mxPoint x="800" y="1010" as="sourcePoint" />
            <mxPoint x="963" y="970" as="targetPoint" />
          </mxGeometry>
        </mxCell>
        <mxCell id="OJ9i9CxA9cbUhxCRyyPE-347" value="" style="endArrow=none;html=1;rounded=0;entryX=0.5;entryY=1;entryDx=0;entryDy=0;exitX=0.5;exitY=0;exitDx=0;exitDy=0;" edge="1" parent="1" source="OJ9i9CxA9cbUhxCRyyPE-336">
          <mxGeometry width="50" height="50" relative="1" as="geometry">
            <mxPoint x="793" y="1020" as="sourcePoint" />
            <mxPoint x="963" y="970" as="targetPoint" />
          </mxGeometry>
        </mxCell>
        <mxCell id="OJ9i9CxA9cbUhxCRyyPE-348" value="" style="endArrow=none;html=1;rounded=0;entryX=0.5;entryY=1;entryDx=0;entryDy=0;exitX=0.5;exitY=0;exitDx=0;exitDy=0;" edge="1" parent="1" source="OJ9i9CxA9cbUhxCRyyPE-337">
          <mxGeometry width="50" height="50" relative="1" as="geometry">
            <mxPoint x="793" y="1020" as="sourcePoint" />
            <mxPoint x="963" y="970" as="targetPoint" />
          </mxGeometry>
        </mxCell>
        <mxCell id="OJ9i9CxA9cbUhxCRyyPE-349" value="" style="endArrow=none;html=1;rounded=0;entryX=0.5;entryY=1;entryDx=0;entryDy=0;exitX=0.5;exitY=0;exitDx=0;exitDy=0;" edge="1" parent="1" source="OJ9i9CxA9cbUhxCRyyPE-345">
          <mxGeometry width="50" height="50" relative="1" as="geometry">
            <mxPoint x="793" y="1020" as="sourcePoint" />
            <mxPoint x="963" y="970" as="targetPoint" />
          </mxGeometry>
        </mxCell>
        <mxCell id="OJ9i9CxA9cbUhxCRyyPE-350" value="&lt;u&gt;&lt;b&gt;neptunkód PK&lt;/b&gt;&lt;/u&gt;" style="ellipse;whiteSpace=wrap;html=1;" vertex="1" parent="1">
          <mxGeometry x="1205" y="1000" width="90" height="40" as="geometry" />
        </mxCell>
        <mxCell id="OJ9i9CxA9cbUhxCRyyPE-351" value="név" style="ellipse;whiteSpace=wrap;html=1;" vertex="1" parent="1">
          <mxGeometry x="1330" y="1000" width="90" height="40" as="geometry" />
        </mxCell>
        <mxCell id="OJ9i9CxA9cbUhxCRyyPE-352" value="szül.dátum" style="ellipse;whiteSpace=wrap;html=1;" vertex="1" parent="1">
          <mxGeometry x="1460" y="1000" width="90" height="40" as="geometry" />
        </mxCell>
        <mxCell id="OJ9i9CxA9cbUhxCRyyPE-353" value="irsz" style="ellipse;whiteSpace=wrap;html=1;" vertex="1" parent="1">
          <mxGeometry x="1590" y="1000" width="90" height="40" as="geometry" />
        </mxCell>
        <mxCell id="OJ9i9CxA9cbUhxCRyyPE-354" value="" style="endArrow=none;html=1;rounded=0;entryX=0.5;entryY=1;entryDx=0;entryDy=0;exitX=0.5;exitY=0;exitDx=0;exitDy=0;" edge="1" parent="1" source="OJ9i9CxA9cbUhxCRyyPE-350" target="OJ9i9CxA9cbUhxCRyyPE-324">
          <mxGeometry width="50" height="50" relative="1" as="geometry">
            <mxPoint x="730" y="1040" as="sourcePoint" />
            <mxPoint x="780" y="990" as="targetPoint" />
          </mxGeometry>
        </mxCell>
        <mxCell id="OJ9i9CxA9cbUhxCRyyPE-355" value="" style="endArrow=none;html=1;rounded=0;entryX=0.5;entryY=1;entryDx=0;entryDy=0;exitX=0.5;exitY=0;exitDx=0;exitDy=0;" edge="1" parent="1" source="OJ9i9CxA9cbUhxCRyyPE-351" target="OJ9i9CxA9cbUhxCRyyPE-324">
          <mxGeometry width="50" height="50" relative="1" as="geometry">
            <mxPoint x="730" y="1040" as="sourcePoint" />
            <mxPoint x="780" y="990" as="targetPoint" />
          </mxGeometry>
        </mxCell>
        <mxCell id="OJ9i9CxA9cbUhxCRyyPE-356" value="" style="endArrow=none;html=1;rounded=0;entryX=0.5;entryY=1;entryDx=0;entryDy=0;exitX=0.5;exitY=0;exitDx=0;exitDy=0;" edge="1" parent="1" source="OJ9i9CxA9cbUhxCRyyPE-352" target="OJ9i9CxA9cbUhxCRyyPE-324">
          <mxGeometry width="50" height="50" relative="1" as="geometry">
            <mxPoint x="730" y="1040" as="sourcePoint" />
            <mxPoint x="780" y="990" as="targetPoint" />
          </mxGeometry>
        </mxCell>
        <mxCell id="OJ9i9CxA9cbUhxCRyyPE-357" value="" style="endArrow=none;html=1;rounded=0;entryX=0.5;entryY=1;entryDx=0;entryDy=0;exitX=0.5;exitY=0;exitDx=0;exitDy=0;" edge="1" parent="1" source="OJ9i9CxA9cbUhxCRyyPE-353" target="OJ9i9CxA9cbUhxCRyyPE-324">
          <mxGeometry width="50" height="50" relative="1" as="geometry">
            <mxPoint x="920" y="1030" as="sourcePoint" />
            <mxPoint x="970" y="980" as="targetPoint" />
          </mxGeometry>
        </mxCell>
        <mxCell id="OJ9i9CxA9cbUhxCRyyPE-360" value="tankör" style="ellipse;whiteSpace=wrap;html=1;" vertex="1" parent="1">
          <mxGeometry x="1460" y="810" width="90" height="40" as="geometry" />
        </mxCell>
        <mxCell id="OJ9i9CxA9cbUhxCRyyPE-362" value="" style="endArrow=none;html=1;rounded=0;entryX=0.5;entryY=1;entryDx=0;entryDy=0;exitX=0.5;exitY=0;exitDx=0;exitDy=0;" edge="1" parent="1" source="OJ9i9CxA9cbUhxCRyyPE-324" target="OJ9i9CxA9cbUhxCRyyPE-360">
          <mxGeometry width="50" height="50" relative="1" as="geometry">
            <mxPoint x="1070" y="660" as="sourcePoint" />
            <mxPoint x="1120" y="610" as="targetPoint" />
          </mxGeometry>
        </mxCell>
        <mxCell id="OJ9i9CxA9cbUhxCRyyPE-363" value="város" style="ellipse;whiteSpace=wrap;html=1;" vertex="1" parent="1">
          <mxGeometry x="1330" y="810" width="90" height="40" as="geometry" />
        </mxCell>
        <mxCell id="OJ9i9CxA9cbUhxCRyyPE-364" value="" style="endArrow=none;html=1;rounded=0;entryX=0.5;entryY=1;entryDx=0;entryDy=0;exitX=0.5;exitY=0;exitDx=0;exitDy=0;" edge="1" parent="1" source="OJ9i9CxA9cbUhxCRyyPE-324" target="OJ9i9CxA9cbUhxCRyyPE-363">
          <mxGeometry width="50" height="50" relative="1" as="geometry">
            <mxPoint x="1070" y="660" as="sourcePoint" />
            <mxPoint x="1120" y="610" as="targetPoint" />
          </mxGeometry>
        </mxCell>
        <mxCell id="OJ9i9CxA9cbUhxCRyyPE-365" value="házszám" style="ellipse;whiteSpace=wrap;html=1;" vertex="1" parent="1">
          <mxGeometry x="1590" y="810" width="90" height="40" as="geometry" />
        </mxCell>
        <mxCell id="OJ9i9CxA9cbUhxCRyyPE-366" value="utca" style="ellipse;whiteSpace=wrap;html=1;" vertex="1" parent="1">
          <mxGeometry x="1205" y="810" width="90" height="40" as="geometry" />
        </mxCell>
        <mxCell id="OJ9i9CxA9cbUhxCRyyPE-367" value="" style="endArrow=none;html=1;rounded=0;entryX=0.5;entryY=1;entryDx=0;entryDy=0;exitX=0.5;exitY=0;exitDx=0;exitDy=0;" edge="1" parent="1" source="OJ9i9CxA9cbUhxCRyyPE-324" target="OJ9i9CxA9cbUhxCRyyPE-366">
          <mxGeometry width="50" height="50" relative="1" as="geometry">
            <mxPoint x="1375" y="920" as="sourcePoint" />
            <mxPoint x="1260" y="710" as="targetPoint" />
          </mxGeometry>
        </mxCell>
        <mxCell id="OJ9i9CxA9cbUhxCRyyPE-368" value="" style="endArrow=none;html=1;rounded=0;entryX=0.5;entryY=1;entryDx=0;entryDy=0;exitX=0.5;exitY=0;exitDx=0;exitDy=0;" edge="1" parent="1" source="OJ9i9CxA9cbUhxCRyyPE-324" target="OJ9i9CxA9cbUhxCRyyPE-365">
          <mxGeometry width="50" height="50" relative="1" as="geometry">
            <mxPoint x="1070" y="660" as="sourcePoint" />
            <mxPoint x="1120" y="610" as="targetPoint" />
          </mxGeometry>
        </mxCell>
        <mxCell id="OJ9i9CxA9cbUhxCRyyPE-371" value="O-T" style="rhombus;whiteSpace=wrap;html=1;" vertex="1" parent="1">
          <mxGeometry x="300" y="890" width="80" height="80" as="geometry" />
        </mxCell>
        <mxCell id="OJ9i9CxA9cbUhxCRyyPE-372" value="" style="endArrow=classic;html=1;rounded=0;entryX=1;entryY=0.5;entryDx=0;entryDy=0;exitX=0;exitY=0.5;exitDx=0;exitDy=0;" edge="1" parent="1" source="OJ9i9CxA9cbUhxCRyyPE-371" target="OJ9i9CxA9cbUhxCRyyPE-326">
          <mxGeometry width="50" height="50" relative="1" as="geometry">
            <mxPoint x="550" y="860" as="sourcePoint" />
            <mxPoint x="540" y="750" as="targetPoint" />
          </mxGeometry>
        </mxCell>
        <mxCell id="OJ9i9CxA9cbUhxCRyyPE-373" value="" style="endArrow=classic;html=1;rounded=0;entryX=0;entryY=0.5;entryDx=0;entryDy=0;exitX=1;exitY=0.5;exitDx=0;exitDy=0;" edge="1" parent="1" source="OJ9i9CxA9cbUhxCRyyPE-371" target="OJ9i9CxA9cbUhxCRyyPE-325">
          <mxGeometry width="50" height="50" relative="1" as="geometry">
            <mxPoint x="390" y="900" as="sourcePoint" />
            <mxPoint x="440" y="850" as="targetPoint" />
          </mxGeometry>
        </mxCell>
        <mxCell id="OJ9i9CxA9cbUhxCRyyPE-374" value="" style="endArrow=classic;html=1;rounded=0;exitX=1;exitY=0.5;exitDx=0;exitDy=0;" edge="1" parent="1" source="OJ9i9CxA9cbUhxCRyyPE-371">
          <mxGeometry width="50" height="50" relative="1" as="geometry">
            <mxPoint x="500" y="810" as="sourcePoint" />
            <mxPoint x="440" y="930" as="targetPoint" />
          </mxGeometry>
        </mxCell>
        <mxCell id="OJ9i9CxA9cbUhxCRyyPE-376" value="Hallgat" style="rhombus;whiteSpace=wrap;html=1;" vertex="1" parent="1">
          <mxGeometry x="923" y="890" width="80" height="80" as="geometry" />
        </mxCell>
        <mxCell id="OJ9i9CxA9cbUhxCRyyPE-377" value="" style="endArrow=classic;startArrow=classic;html=1;rounded=0;entryX=0;entryY=0.5;entryDx=0;entryDy=0;exitX=1;exitY=0.5;exitDx=0;exitDy=0;" edge="1" parent="1" source="OJ9i9CxA9cbUhxCRyyPE-325" target="OJ9i9CxA9cbUhxCRyyPE-376">
          <mxGeometry width="50" height="50" relative="1" as="geometry">
            <mxPoint x="690" y="955" as="sourcePoint" />
            <mxPoint x="740" y="905" as="targetPoint" />
          </mxGeometry>
        </mxCell>
        <mxCell id="OJ9i9CxA9cbUhxCRyyPE-378" value="" style="endArrow=classic;startArrow=classic;html=1;rounded=0;" edge="1" parent="1">
          <mxGeometry width="50" height="50" relative="1" as="geometry">
            <mxPoint x="590" y="930" as="sourcePoint" />
            <mxPoint x="910" y="930" as="targetPoint" />
          </mxGeometry>
        </mxCell>
        <mxCell id="OJ9i9CxA9cbUhxCRyyPE-379" value="" style="endArrow=classic;startArrow=classic;html=1;rounded=0;entryX=0;entryY=0.5;entryDx=0;entryDy=0;exitX=1;exitY=0.5;exitDx=0;exitDy=0;" edge="1" parent="1" source="OJ9i9CxA9cbUhxCRyyPE-376" target="OJ9i9CxA9cbUhxCRyyPE-324">
          <mxGeometry width="50" height="50" relative="1" as="geometry">
            <mxPoint x="730" y="1120" as="sourcePoint" />
            <mxPoint x="780" y="1070" as="targetPoint" />
          </mxGeometry>
        </mxCell>
        <mxCell id="OJ9i9CxA9cbUhxCRyyPE-380" value="" style="endArrow=classic;startArrow=classic;html=1;rounded=0;" edge="1" parent="1">
          <mxGeometry width="50" height="50" relative="1" as="geometry">
            <mxPoint x="1010" y="930" as="sourcePoint" />
            <mxPoint x="1390" y="930" as="targetPoint" />
          </mxGeometry>
        </mxCell>
      </root>
    </mxGraphModel>
  </diagram>
</mxfile>
